<svg xmlns="http://www.w3.org/2000/svg" xmlns:xlink="http://www.w3.org/1999/xlink" id="Capa_1" x="0px" y="0px" viewBox="0 0 1919.7 182.1" style="enable-background:new 0 0 1919.7 182.1;" xml:space="preserve"><style type="text/css">	.st0{fill:#FFFFFF;}</style><path class="st0" d="M1919.7,121.2c-0.2-40.4-0.1-80.7-0.1-121.1c-28.8,6.8-57.6,14-86.5,20.5c-49.9,11.3-99.9,21.9-150.1,31.2 c-37.7,7-75.3,13.9-113.1,19.9c-40.1,6.3-80.3,12.2-120.6,17c-31.2,3.7-62.4,7.6-93.7,10.8c-32.1,3.3-64.3,6-96.5,8.7 c-39,3.2-78,5.4-117.1,7.6c-27.6,1.5-55.3,2.5-82.9,2.9c-48.8,0.7-97.6,1.8-146.4,0.8c-54.5-1.1-108.9-2-163.3-5.5 c-28-1.8-56.1-3.4-84.2-5.5c-42.4-3.2-84.6-7.1-126.8-12c-33-3.8-66.1-7.2-99.1-11.8C398.1,79,356.9,73,315.9,65.9 c-47.4-8.2-94.8-16.7-141.9-26.3C115.8,27.7,57.9,14,0.1,0c0,40.2,0.1,80.4-0.1,120.7c0,1.8,0.2,2.9,0.8,3.6H0v57.8h1919.7v-57.8 h-0.5C1919.6,123.7,1919.7,122.7,1919.7,121.2z"></path></svg>